name analog
datacolumns 19
datarows 32
range 0.495 0.5105000000000001
endheader
time	ground_force_vx	ground_force_vy	ground_force_vz	ground_force_px	ground_force_py	ground_force_pz	l_ground_force_vx	l_ground_force_vy	l_ground_force_vz	l_ground_force_px	l_ground_force_py	l_ground_force_pz	ground_torque_x	ground_torque_y	ground_torque_z	l_ground_torque_x	l_ground_torque_y	l_ground_torque_z
0.495	-0.0	-0.0	-0.0	5.213322639465332	50.35319900512695	-354.6812744140625	9.841667175292969	-69.58674621582031	-568.332763671875	-0.0	-0.0	-0.0	-0.0	-0.0	-0.0	156681.71875	-29251.861328125	2779.60302734375
0.4955	-0.0	-0.0	-0.0	4.770096302032471	49.960235595703125	-345.7745361328125	8.993636131286621	-68.81622314453125	-565.7481079101562	-0.0	-0.0	-0.0	-0.0	-0.0	-0.0	155809.859375	-29374.712890625	2433.3662109375
0.496	-0.0	-0.0	-0.0	4.091648578643799	49.15592193603516	-337.0249938964844	8.727851867675781	-67.95194244384766	-562.74658203125	-0.0	-0.0	-0.0	-0.0	-0.0	-0.0	155172.46875	-29151.478515625	2187.732421875
0.4965	-0.0	-0.0	-0.0	4.126221656799316	47.434478759765625	-328.89044189453125	7.940564155578613	-67.4169692993164	-558.7974853515625	-0.0	-0.0	-0.0	-0.0	-0.0	-0.0	153699.328125	-28908.19921875	2004.924560546875
0.497	-0.0	-0.0	-0.0	3.5075623989105225	45.48472595214844	-321.26416015625	7.653052806854248	-66.07122802734375	-552.685791015625	-0.0	-0.0	-0.0	-0.0	-0.0	-0.0	152189.921875	-28613.326171875	1692.9437255859375
0.4975	-0.0	-0.0	-0.0	2.511318683624268	43.21675491333008	-314.9933776855469	6.639843463897705	-64.5512466430664	-545.335693359375	-0.0	-0.0	-0.0	-0.0	-0.0	-0.0	150324.03125	-27905.71875	1335.3223876953125
0.498	-0.0	-0.0	-0.0	2.37626576423645	40.30853271484375	-307.8873291015625	6.475887298583984	-62.99464416503906	-536.2127685546875	-0.0	-0.0	-0.0	-0.0	-0.0	-0.0	148138.421875	-27530.712890625	1037.5654296875
0.4985	-0.0	-0.0	-0.0	1.6280590295791626	38.17097091674805	-299.7615966796875	5.533620834350586	-61.50647735595703	-528.1277465820312	-0.0	-0.0	-0.0	-0.0	-0.0	-0.0	145254.21875	-26924.177734375	774.0900268554688
0.499	-0.0	-0.0	-0.0	1.2596774101257324	36.08378601074219	-293.62664794921875	5.476837158203125	-60.2921142578125	-518.6937255859375	-0.0	-0.0	-0.0	-0.0	-0.0	-0.0	142290.109375	-26055.91796875	626.3790893554688
0.4995	-0.0	-0.0	-0.0	0.926109254360199	33.70252990722656	-285.9979858398437	5.275829315185547	-58.7859001159668	-508.4871826171875	-0.0	-0.0	-0.0	-0.0	-0.0	-0.0	139541.4375	-25223.673828125	600.4273071289062
0.5	-0.0	-0.0	-0.0	0.1152652353048324	31.688356399536133	-277.1847839355469	5.207666397094727	-57.367652893066406	-498.3427429199219	-0.0	-0.0	-0.0	-0.0	-0.0	-0.0	136659.96875	-24702.212890625	585.8930053710938
0.5005000000000001	-0.0	-0.0	-0.0	-0.6323352456092834	29.92685317993164	-273.6002197265625	5.749220848083496	-55.9088134765625	-488.9314880371094	-0.0	-0.0	-0.0	-0.0	-0.0	-0.0	134249.484375	-24046.884765625	513.36181640625
0.501	-0.0	-0.0	-0.0	-1.070526123046875	28.891660690307617	-265.8710327148437	6.254099845886231	-54.99367904663086	-480.566650390625	-0.0	-0.0	-0.0	-0.0	-0.0	-0.0	131621.0	-23266.3984375	616.8478393554688
0.5015000000000001	-0.0	-0.0	-0.0	-2.051841735839844	27.50177764892578	-260.792724609375	6.523618698120117	-54.2880859375	-473.8526916503906	-0.0	-0.0	-0.0	-0.0	-0.0	-0.0	129384.078125	-22942.72265625	680.8410034179688
0.502	-0.0	-0.0	-0.0	-2.230262756347656	26.04663848876953	-253.3114776611328	6.899097442626953	-54.57267379760742	-466.8557739257813	-0.0	-0.0	-0.0	-0.0	-0.0	-0.0	127944.625	-22187.095703125	746.2518310546875
0.5025000000000001	-0.0	-0.0	-0.0	-3.290563106536865	25.684175491333008	-249.1802978515625	6.928153991699219	-54.867332458496094	-462.4237060546875	-0.0	-0.0	-0.0	-0.0	-0.0	-0.0	126283.8359375	-21941.041015625	931.9791870117188
0.503	-0.0	-0.0	-0.0	-4.311434745788574	24.75408935546875	-244.90521240234372	7.347928047180176	-55.318504333496094	-460.2769775390625	-0.0	-0.0	-0.0	-0.0	-0.0	-0.0	125520.953125	-21889.638671875	1073.9017333984375
0.5035000000000001	-0.0	-0.0	-0.0	-5.265434265136719	24.36450958251953	-239.9555206298828	7.9099040031433105	-56.15225982666016	-458.27972412109375	-0.0	-0.0	-0.0	-0.0	-0.0	-0.0	124990.0234375	-21732.9921875	1252.800537109375
0.504	-0.0	-0.0	-0.0	-5.571348190307617	24.03501319885254	-235.9241943359375	8.308940887451172	-56.47721481323242	-459.13079833984375	-0.0	-0.0	-0.0	-0.0	-0.0	-0.0	124760.0546875	-22001.28515625	1441.7723388671875
0.5045000000000001	-0.0	-0.0	-0.0	-6.31450080871582	23.5615348815918	-230.66622924804688	8.72565746307373	-57.40431213378906	-459.30963134765625	-0.0	-0.0	-0.0	-0.0	-0.0	-0.0	125007.4453125	-22551.54296875	1719.61376953125
0.505	-0.0	-0.0	-0.0	-6.88905143737793	22.88660049438477	-225.68206787109372	9.09287452697754	-57.87029266357422	-461.5198974609375	-0.0	-0.0	-0.0	-0.0	-0.0	-0.0	125791.9609375	-23052.837890625	1860.602294921875
0.5055000000000001	-0.0	-0.0	-0.0	-7.776304244995117	22.589513778686523	-221.4342803955078	9.489855766296388	-58.63835906982422	-466.5245666503906	-0.0	-0.0	-0.0	-0.0	-0.0	-0.0	126854.0390625	-23580.546875	2088.207763671875
0.506	-0.0	-0.0	-0.0	-7.929900169372559	22.213817596435547	-217.7173309326172	9.492053985595703	-59.3908805847168	-470.49853515625	-0.0	-0.0	-0.0	-0.0	-0.0	-0.0	128567.4609375	-24143.36328125	2133.976806640625
0.5065000000000001	-0.0	-0.0	-0.0	-8.65620231628418	21.137039184570312	-214.13584899902344	9.175823211669922	-59.81819152832031	-478.3981323242188	-0.0	-0.0	-0.0	-0.0	-0.0	-0.0	130473.3515625	-25142.318359375	2274.810546875
0.507	-0.0	-0.0	-0.0	-8.608750343322754	20.366361618041992	-210.1805725097656	8.796722412109375	-60.538604736328125	-485.9200134277344	-0.0	-0.0	-0.0	-0.0	-0.0	-0.0	132653.125	-25870.341796875	2347.5634765625
0.5075000000000001	-0.0	-0.0	-0.0	-8.525043487548828	19.462940216064453	-205.84423828125	8.581878662109375	-61.85675430297852	-493.7941589355469	-0.0	-0.0	-0.0	-0.0	-0.0	-0.0	134981.390625	-26891.107421875	2256.55859375
0.508	-0.0	-0.0	-0.0	-9.3605375289917	18.589977264404297	-203.00262451171875	8.091609001159668	-62.96394348144531	-500.98138427734375	-0.0	-0.0	-0.0	-0.0	-0.0	-0.0	137480.40625	-27794.748046875	2247.3935546875
0.5085000000000001	-0.0	-0.0	-0.0	-8.92347240447998	17.830821990966797	-200.3033599853516	7.222894668579102	-63.87773132324219	-510.4190979003906	-0.0	-0.0	-0.0	-0.0	-0.0	-0.0	139702.9375	-28416.34765625	2104.02685546875
0.509	-0.0	-0.0	-0.0	-9.115646362304688	16.78965187072754	-197.09323120117188	6.8260178565979	-64.89090728759766	-517.9110107421875	-0.0	-0.0	-0.0	-0.0	-0.0	-0.0	142003.75	-29068.46484375	2120.3203125
0.5095000000000001	-0.0	-0.0	-0.0	-8.910440444946289	15.99435806274414	-197.4227294921875	6.32786226272583	-65.49984741210938	-524.7567138671875	-0.0	-0.0	-0.0	-0.0	-0.0	-0.0	144080.84375	-29696.75	1999.5911865234373
0.51	-0.0	-0.0	-0.0	-8.869367599487305	15.349175453186035	-198.02252197265625	5.827104568481445	-66.18984985351562	-530.543701171875	-0.0	-0.0	-0.0	-0.0	-0.0	-0.0	145876.671875	-30640.857421875	1918.5941162109373
0.5105000000000001	-0.0	-0.0	-0.0	-9.379709243774414	14.704524993896484	-197.1903533935547	5.377662658691406	-66.83512878417969	-538.8134765625	-0.0	-0.0	-0.0	-0.0	-0.0	-0.0	147952.03125	-31213.4921875	1833.688720703125
